# MagicaVoxel @ Ephtracy

# group
g mailbox

# material
mtllib mailbox.mtl
usemtl palette

# normals
vn -1 0 0
vn 1 0 0
vn 0 0 1
vn 0 0 -1
vn 0 -1 0
vn 0 1 0

# texcoords
vt 0.314453 0.5
vt 0.318359 0.5
vt 0.634766 0.5
vt 0.646484 0.5
vt 0.755859 0.5
vt 0.974609 0.5
vt 0.982422 0.5

# verts
v -3.5 25 -1.5
v -3.5 25 -2.5
v -3.5 30 -0.5
v -3.5 30 -1.5
v -3.5 32 -0.5
v -3.5 32 -2.5
v -2.5 0 4.5
v -2.5 0 -1.5
v -2.5 2 4.5
v -2.5 2 -1.5
v -2.5 22 4.5
v -2.5 22 3.5
v -2.5 22 2.5
v -2.5 22 -5.5
v -2.5 25 -1.5
v -2.5 25 -2.5
v -2.5 26 4.5
v -2.5 26 3.5
v -2.5 26 2.5
v -2.5 26 -1.5
v -2.5 26 -2.5
v -2.5 26 -5.5
v -1.5 25 5.5
v -1.5 25 4.5
v -1.5 26 5.5
v -1.5 26 4.5
v -1.5 26 3.5
v -1.5 26 2.5
v -1.5 26 -5.5
v -1.5 27 4.5
v -1.5 27 3.5
v -1.5 27 2.5
v -1.5 27 -5.5
v -0.5 2 2.5
v -0.5 2 0.5
v -0.5 22 2.5
v -0.5 22 0.5
v -0.5 27 4.5
v -0.5 27 3.5
v -0.5 27 2.5
v -0.5 27 -5.5
v -0.5 28 4.5
v -0.5 28 3.5
v -0.5 28 2.5
v -0.5 28 -5.5
v -2.5 26 -1.5
v -2.5 26 -2.5
v -2.5 30 -0.5
v -2.5 30 -1.5
v -2.5 32 -0.5
v -2.5 32 -2.5
v 1.5 2 2.5
v 1.5 2 0.5
v 1.5 22 2.5
v 1.5 22 0.5
v 1.5 27 4.5
v 1.5 27 3.5
v 1.5 27 2.5
v 1.5 27 -5.5
v 1.5 28 4.5
v 1.5 28 3.5
v 1.5 28 2.5
v 1.5 28 -5.5
v 2.5 25 5.5
v 2.5 25 4.5
v 2.5 26 5.5
v 2.5 26 4.5
v 2.5 26 3.5
v 2.5 26 2.5
v 2.5 26 -5.5
v 2.5 27 4.5
v 2.5 27 3.5
v 2.5 27 2.5
v 2.5 27 -5.5
v 3.5 0 4.5
v 3.5 0 -1.5
v 3.5 2 4.5
v 3.5 2 -1.5
v 3.5 22 4.5
v 3.5 22 3.5
v 3.5 22 2.5
v 3.5 22 -5.5
v 3.5 26 4.5
v 3.5 26 3.5
v 3.5 26 2.5
v 3.5 26 -5.5
v -1.5 25 5.5
v -1.5 26 5.5
v 2.5 25 5.5
v 2.5 26 5.5
v -2.5 0 4.5
v -2.5 2 4.5
v -2.5 22 4.5
v -2.5 26 4.5
v -1.5 25 4.5
v -1.5 26 4.5
v -1.5 27 4.5
v -0.5 27 4.5
v -0.5 28 4.5
v 1.5 27 4.5
v 1.5 28 4.5
v 2.5 25 4.5
v 2.5 26 4.5
v 2.5 27 4.5
v 3.5 0 4.5
v 3.5 2 4.5
v 3.5 22 4.5
v 3.5 26 4.5
v -0.5 2 2.5
v -0.5 22 2.5
v 1.5 2 2.5
v 1.5 22 2.5
v -3.5 30 -0.5
v -3.5 32 -0.5
v -2.5 30 -0.5
v -2.5 32 -0.5
v -3.5 25 -1.5
v -3.5 30 -1.5
v -2.5 25 -1.5
v -2.5 26 -1.5
v -2.5 30 -1.5
v -0.5 2 0.5
v -0.5 22 0.5
v 1.5 2 0.5
v 1.5 22 0.5
v -2.5 0 -1.5
v -2.5 2 -1.5
v 3.5 0 -1.5
v 3.5 2 -1.5
v -3.5 25 -2.5
v -3.5 32 -2.5
v -2.5 25 -2.5
v -2.5 26 -2.5
v -2.5 32 -2.5
v -2.5 22 -5.5
v -2.5 26 -5.5
v -1.5 26 -5.5
v -1.5 27 -5.5
v -0.5 27 -5.5
v -0.5 28 -5.5
v 1.5 27 -5.5
v 1.5 28 -5.5
v 2.5 26 -5.5
v 2.5 27 -5.5
v 3.5 22 -5.5
v 3.5 26 -5.5
v -2.5 0 4.5
v 3.5 0 4.5
v -2.5 0 -1.5
v 3.5 0 -1.5
v -2.5 22 4.5
v 3.5 22 4.5
v -2.5 22 3.5
v 3.5 22 3.5
v -2.5 22 2.5
v -0.5 22 2.5
v 1.5 22 2.5
v 3.5 22 2.5
v -0.5 22 0.5
v 1.5 22 0.5
v -2.5 22 -5.5
v 3.5 22 -5.5
v -1.5 25 5.5
v 2.5 25 5.5
v -1.5 25 4.5
v 2.5 25 4.5
v -3.5 25 -1.5
v -2.5 25 -1.5
v -3.5 25 -2.5
v -2.5 25 -2.5
v -3.5 30 -0.5
v -2.5 30 -0.5
v -3.5 30 -1.5
v -2.5 30 -1.5
v -2.5 2 4.5
v 3.5 2 4.5
v -0.5 2 2.5
v 1.5 2 2.5
v -0.5 2 0.5
v 1.5 2 0.5
v -2.5 2 -1.5
v 3.5 2 -1.5
v -1.5 26 5.5
v 2.5 26 5.5
v -2.5 26 4.5
v -1.5 26 4.5
v 2.5 26 4.5
v 3.5 26 4.5
v -2.5 26 3.5
v -1.5 26 3.5
v 2.5 26 3.5
v 3.5 26 3.5
v -2.5 26 2.5
v -1.5 26 2.5
v 2.5 26 2.5
v 3.5 26 2.5
v -2.5 26 -1.5
v -2.5 26 -2.5
v -2.5 26 -5.5
v -1.5 26 -5.5
v 2.5 26 -5.5
v 3.5 26 -5.5
v -1.5 27 4.5
v -0.5 27 4.5
v 1.5 27 4.5
v 2.5 27 4.5
v -1.5 27 3.5
v -0.5 27 3.5
v 1.5 27 3.5
v 2.5 27 3.5
v -1.5 27 2.5
v -0.5 27 2.5
v 1.5 27 2.5
v 2.5 27 2.5
v -1.5 27 -5.5
v -0.5 27 -5.5
v 1.5 27 -5.5
v 2.5 27 -5.5
v -0.5 28 4.5
v 1.5 28 4.5
v -0.5 28 3.5
v 1.5 28 3.5
v -0.5 28 2.5
v 1.5 28 2.5
v -0.5 28 -5.5
v 1.5 28 -5.5
v -3.5 32 -0.5
v -2.5 32 -0.5
v -3.5 32 -2.5
v -2.5 32 -2.5

# faces
f 4/3/1 2/3/1 1/3/1
f 5/3/1 4/3/1 3/3/1
f 6/3/1 2/3/1 4/3/1
f 6/3/1 4/3/1 5/3/1
f 9/2/1 8/2/1 7/2/1
f 10/2/1 8/2/1 9/2/1
f 15/4/1 14/4/1 13/4/1
f 16/4/1 14/4/1 15/4/1
f 17/7/1 12/7/1 11/7/1
f 18/6/1 13/6/1 12/6/1
f 18/7/1 12/7/1 17/7/1
f 19/4/1 15/4/1 13/4/1
f 19/6/1 13/6/1 18/6/1
f 20/4/1 15/4/1 19/4/1
f 21/4/1 14/4/1 16/4/1
f 22/4/1 14/4/1 21/4/1
f 25/5/1 24/5/1 23/5/1
f 26/5/1 24/5/1 25/5/1
f 30/7/1 27/7/1 26/7/1
f 31/6/1 28/6/1 27/6/1
f 31/7/1 27/7/1 30/7/1
f 32/4/1 29/4/1 28/4/1
f 32/6/1 28/6/1 31/6/1
f 33/4/1 29/4/1 32/4/1
f 36/1/1 35/1/1 34/1/1
f 37/1/1 35/1/1 36/1/1
f 42/7/1 39/7/1 38/7/1
f 43/6/1 40/6/1 39/6/1
f 43/7/1 39/7/1 42/7/1
f 44/4/1 41/4/1 40/4/1
f 44/6/1 40/6/1 43/6/1
f 45/4/1 41/4/1 44/4/1
f 46/3/2 47/3/2 49/3/2
f 48/3/2 49/3/2 50/3/2
f 49/3/2 47/3/2 51/3/2
f 50/3/2 49/3/2 51/3/2
f 52/1/2 53/1/2 54/1/2
f 54/1/2 53/1/2 55/1/2
f 56/7/2 57/7/2 60/7/2
f 57/6/2 58/6/2 61/6/2
f 60/7/2 57/7/2 61/7/2
f 58/4/2 59/4/2 62/4/2
f 61/6/2 58/6/2 62/6/2
f 62/4/2 59/4/2 63/4/2
f 64/5/2 65/5/2 66/5/2
f 66/5/2 65/5/2 67/5/2
f 67/7/2 68/7/2 71/7/2
f 68/6/2 69/6/2 72/6/2
f 71/7/2 68/7/2 72/7/2
f 69/4/2 70/4/2 73/4/2
f 72/6/2 69/6/2 73/6/2
f 73/4/2 70/4/2 74/4/2
f 75/2/2 76/2/2 77/2/2
f 77/2/2 76/2/2 78/2/2
f 79/7/2 80/7/2 83/7/2
f 80/6/2 81/6/2 84/6/2
f 83/7/2 80/7/2 84/7/2
f 81/4/2 82/4/2 85/4/2
f 84/6/2 81/6/2 85/6/2
f 85/4/2 82/4/2 86/4/2
f 89/5/3 88/5/3 87/5/3
f 90/5/3 88/5/3 89/5/3
f 95/7/3 94/7/3 93/7/3
f 96/7/3 94/7/3 95/7/3
f 98/7/3 97/7/3 96/7/3
f 100/7/3 98/7/3 96/7/3
f 100/7/3 99/7/3 98/7/3
f 101/7/3 99/7/3 100/7/3
f 102/7/3 95/7/3 93/7/3
f 103/7/3 100/7/3 96/7/3
f 104/7/3 100/7/3 103/7/3
f 105/2/3 92/2/3 91/2/3
f 106/2/3 92/2/3 105/2/3
f 107/7/3 102/7/3 93/7/3
f 107/7/3 103/7/3 102/7/3
f 108/7/3 103/7/3 107/7/3
f 111/1/3 110/1/3 109/1/3
f 112/1/3 110/1/3 111/1/3
f 115/3/3 114/3/3 113/3/3
f 116/3/3 114/3/3 115/3/3
f 119/3/3 118/3/3 117/3/3
f 120/3/3 118/3/3 119/3/3
f 121/3/3 118/3/3 120/3/3
f 122/1/4 123/1/4 124/1/4
f 124/1/4 123/1/4 125/1/4
f 126/2/4 127/2/4 128/2/4
f 128/2/4 127/2/4 129/2/4
f 130/3/4 131/3/4 132/3/4
f 132/3/4 131/3/4 133/3/4
f 133/3/4 131/3/4 134/3/4
f 135/4/4 136/4/4 137/4/4
f 137/4/4 138/4/4 139/4/4
f 137/4/4 139/4/4 141/4/4
f 139/4/4 140/4/4 141/4/4
f 141/4/4 140/4/4 142/4/4
f 135/4/4 137/4/4 143/4/4
f 137/4/4 141/4/4 143/4/4
f 143/4/4 141/4/4 144/4/4
f 135/4/4 143/4/4 145/4/4
f 145/4/4 143/4/4 146/4/4
f 149/2/5 148/2/5 147/2/5
f 150/2/5 148/2/5 149/2/5
f 153/7/5 152/7/5 151/7/5
f 154/7/5 152/7/5 153/7/5
f 155/6/5 154/6/5 153/6/5
f 156/6/5 154/6/5 155/6/5
f 157/6/5 154/6/5 156/6/5
f 158/6/5 154/6/5 157/6/5
f 159/4/5 156/4/5 155/4/5
f 160/4/5 158/4/5 157/4/5
f 161/4/5 159/4/5 155/4/5
f 161/4/5 160/4/5 159/4/5
f 162/4/5 158/4/5 160/4/5
f 162/4/5 160/4/5 161/4/5
f 165/5/5 164/5/5 163/5/5
f 166/5/5 164/5/5 165/5/5
f 169/3/5 168/3/5 167/3/5
f 170/3/5 168/3/5 169/3/5
f 173/3/5 172/3/5 171/3/5
f 174/3/5 172/3/5 173/3/5
f 175/2/6 176/2/6 177/2/6
f 177/2/6 176/2/6 178/2/6
f 175/2/6 177/2/6 179/2/6
f 178/2/6 176/2/6 180/2/6
f 175/2/6 179/2/6 181/2/6
f 179/2/6 180/2/6 181/2/6
f 180/2/6 176/2/6 182/2/6
f 181/2/6 180/2/6 182/2/6
f 183/5/6 184/5/6 186/5/6
f 186/5/6 184/5/6 187/5/6
f 185/7/6 186/7/6 189/7/6
f 189/7/6 186/7/6 190/7/6
f 187/7/6 188/7/6 191/7/6
f 191/7/6 188/7/6 192/7/6
f 189/6/6 190/6/6 193/6/6
f 193/6/6 190/6/6 194/6/6
f 191/6/6 192/6/6 195/6/6
f 195/6/6 192/6/6 196/6/6
f 193/4/6 194/4/6 197/4/6
f 197/4/6 194/4/6 198/4/6
f 198/4/6 194/4/6 199/4/6
f 199/4/6 194/4/6 200/4/6
f 195/4/6 196/4/6 201/4/6
f 201/4/6 196/4/6 202/4/6
f 203/7/6 204/7/6 207/7/6
f 207/7/6 204/7/6 208/7/6
f 205/7/6 206/7/6 209/7/6
f 209/7/6 206/7/6 210/7/6
f 207/6/6 208/6/6 211/6/6
f 211/6/6 208/6/6 212/6/6
f 209/6/6 210/6/6 213/6/6
f 213/6/6 210/6/6 214/6/6
f 211/4/6 212/4/6 215/4/6
f 215/4/6 212/4/6 216/4/6
f 213/4/6 214/4/6 217/4/6
f 217/4/6 214/4/6 218/4/6
f 219/7/6 220/7/6 221/7/6
f 221/7/6 220/7/6 222/7/6
f 221/6/6 222/6/6 223/6/6
f 223/6/6 222/6/6 224/6/6
f 223/4/6 224/4/6 225/4/6
f 225/4/6 224/4/6 226/4/6
f 227/3/6 228/3/6 229/3/6
f 229/3/6 228/3/6 230/3/6
