# MagicaVoxel @ Ephtracy

# group
g casa-1

# material
mtllib casa-1.mtl
usemtl palette

# normals
vn -1 0 0
vn 1 0 0
vn 0 0 1
vn 0 0 -1
vn 0 -1 0
vn 0 1 0

# texcoords
vt 0.751953 0.5
vt 0.755859 0.5

# verts
v -7 0 2
v -7 0 -0
v -7 40 2
v -7 40 -0
v -5 8 -0
v -5 8 -2
v -5 12 -0
v -5 12 -2
v -5 32 -0
v -5 32 -1
v -5 32 -2
v -5 35 -0
v -5 35 -1
v -5 36 -0
v -5 36 -2
v -5 40 2
v -5 40 -0
v -5 42 2
v -5 42 -0
v -2 41 1
v -2 41 -0
v -2 42 1
v -2 42 -0
v -1 40 2
v -1 40 -0
v -1 41 1
v -1 41 -0
v -1 42 2
v -1 42 1
v 1 0 2
v 1 0 -0
v 1 8 -0
v 1 12 -0
v 1 32 -0
v 1 36 -0
v 1 40 2
v 1 40 -0
v 7 8 -0
v 7 8 -2
v 7 12 -0
v 7 12 -2
v 7 32 -0
v 7 32 -2
v 7 36 -0
v 7 36 -2
v -7 0 2
v -7 40 2
v -5 40 2
v -5 42 2
v -1 40 2
v -1 42 2
v 1 0 2
v 1 40 2
v 1 8 -0
v 1 12 -0
v 1 32 -0
v 1 36 -0
v 7 8 -0
v 7 12 -0
v 7 32 -0
v 7 36 -0
v -2 41 1
v -2 42 1
v -1 41 1
v -1 42 1
v -7 0 -0
v -7 40 -0
v -5 8 -0
v -5 12 -0
v -5 32 -0
v -5 35 -0
v -5 36 -0
v -5 40 -0
v -5 42 -0
v -4 8 -0
v -2 41 -0
v -2 42 -0
v -1 40 -0
v -1 41 -0
v 1 0 -0
v 1 8 -0
v 1 12 -0
v 1 32 -0
v 1 36 -0
v 1 40 -0
v -5 8 -2
v -5 12 -2
v -5 32 -2
v -5 36 -2
v 7 8 -2
v 7 12 -2
v 7 32 -2
v 7 36 -2
v -7 0 2
v 1 0 2
v -7 0 -0
v 1 0 -0
v -5 8 -0
v -4 8 -0
v 1 8 -0
v 7 8 -0
v -4 8 -1
v 1 8 -1
v -5 8 -2
v 7 8 -2
v -5 32 -0
v 1 32 -0
v 7 32 -0
v -5 32 -1
v 1 32 -1
v -5 32 -2
v 7 32 -2
v -5 12 -0
v 1 12 -0
v 7 12 -0
v -5 12 -2
v 7 12 -2
v -5 36 -0
v 1 36 -0
v 7 36 -0
v -5 36 -2
v 7 36 -2
v -7 40 2
v -5 40 2
v -1 40 2
v 1 40 2
v -7 40 -0
v -5 40 -0
v -1 40 -0
v 1 40 -0
v -2 41 1
v -1 41 1
v -2 41 -0
v -1 41 -0
v -5 42 2
v -1 42 2
v -2 42 1
v -1 42 1
v -5 42 -0
v -2 42 -0

# faces
f 3/1/1 2/1/1 1/1/1
f 4/1/1 2/1/1 3/1/1
f 7/2/1 6/2/1 5/2/1
f 8/2/1 6/2/1 7/2/1
f 12/1/1 10/1/1 9/1/1
f 13/2/1 11/2/1 10/2/1
f 13/1/1 10/1/1 12/1/1
f 14/2/1 13/2/1 12/2/1
f 15/2/1 11/2/1 13/2/1
f 15/2/1 13/2/1 14/2/1
f 18/1/1 17/1/1 16/1/1
f 19/1/1 17/1/1 18/1/1
f 20/1/2 21/1/2 22/1/2
f 22/1/2 21/1/2 23/1/2
f 24/1/2 25/1/2 26/1/2
f 26/1/2 25/1/2 27/1/2
f 24/1/2 26/1/2 28/1/2
f 28/1/2 26/1/2 29/1/2
f 30/1/2 31/1/2 32/1/2
f 30/1/2 32/1/2 33/1/2
f 30/1/2 33/1/2 34/1/2
f 30/1/2 34/1/2 35/1/2
f 30/1/2 35/1/2 36/1/2
f 36/1/2 35/1/2 37/1/2
f 38/2/2 39/2/2 40/2/2
f 40/2/2 39/2/2 41/2/2
f 42/2/2 43/2/2 44/2/2
f 44/2/2 43/2/2 45/2/2
f 48/1/3 47/1/3 46/1/3
f 50/1/3 48/1/3 46/1/3
f 50/1/3 49/1/3 48/1/3
f 51/1/3 49/1/3 50/1/3
f 52/1/3 50/1/3 46/1/3
f 53/1/3 50/1/3 52/1/3
f 58/2/3 55/2/3 54/2/3
f 59/2/3 55/2/3 58/2/3
f 60/2/3 57/2/3 56/2/3
f 61/2/3 57/2/3 60/2/3
f 62/1/4 63/1/4 64/1/4
f 64/1/4 63/1/4 65/1/4
f 66/1/4 67/1/4 68/1/4
f 68/1/4 67/1/4 69/1/4
f 69/1/4 67/1/4 70/1/4
f 70/1/4 67/1/4 71/1/4
f 71/1/4 67/1/4 72/1/4
f 72/1/4 67/1/4 73/1/4
f 66/1/4 68/1/4 75/1/4
f 73/1/4 74/1/4 76/1/4
f 72/1/4 73/1/4 76/1/4
f 76/1/4 74/1/4 77/1/4
f 72/1/4 76/1/4 78/1/4
f 78/1/4 76/1/4 79/1/4
f 66/1/4 75/1/4 80/1/4
f 80/1/4 75/1/4 81/1/4
f 69/1/4 70/1/4 82/1/4
f 82/1/4 70/1/4 83/1/4
f 72/1/4 78/1/4 84/1/4
f 84/1/4 78/1/4 85/1/4
f 86/2/4 87/2/4 90/2/4
f 90/2/4 87/2/4 91/2/4
f 88/2/4 89/2/4 92/2/4
f 92/2/4 89/2/4 93/2/4
f 96/1/5 95/1/5 94/1/5
f 97/1/5 95/1/5 96/1/5
f 102/2/5 99/2/5 98/2/5
f 102/1/5 100/1/5 99/1/5
f 103/2/5 101/2/5 100/2/5
f 103/1/5 100/1/5 102/1/5
f 104/2/5 102/2/5 98/2/5
f 104/2/5 103/2/5 102/2/5
f 105/2/5 101/2/5 103/2/5
f 105/2/5 103/2/5 104/2/5
f 109/1/5 107/1/5 106/1/5
f 110/2/5 108/2/5 107/2/5
f 110/1/5 107/1/5 109/1/5
f 111/2/5 110/2/5 109/2/5
f 112/2/5 108/2/5 110/2/5
f 112/2/5 110/2/5 111/2/5
f 113/2/6 114/2/6 116/2/6
f 114/2/6 115/2/6 116/2/6
f 116/2/6 115/2/6 117/2/6
f 118/2/6 119/2/6 121/2/6
f 119/2/6 120/2/6 121/2/6
f 121/2/6 120/2/6 122/2/6
f 123/1/6 124/1/6 127/1/6
f 127/1/6 124/1/6 128/1/6
f 125/1/6 126/1/6 129/1/6
f 129/1/6 126/1/6 130/1/6
f 131/1/6 132/1/6 133/1/6
f 133/1/6 132/1/6 134/1/6
f 135/1/6 136/1/6 137/1/6
f 137/1/6 136/1/6 138/1/6
f 135/1/6 137/1/6 139/1/6
f 139/1/6 137/1/6 140/1/6
