# MagicaVoxel @ Ephtracy

# group
g wall-5

# material
mtllib wall-5.mtl
usemtl palette

# normals
vn -1 0 0
vn 1 0 0
vn 0 0 1
vn 0 0 -1
vn 0 -1 0
vn 0 1 0

# texcoords
vt 0.0957031 0.5
vt 0.908203 0.5
vt 0.962891 0.5
vt 0.982422 0.5

# verts
v -9 0 1.5
v -9 0 -0.5
v -9 21 -0.5
v -9 21 -1.5
v -9 22 -0.5
v -9 22 -1.5
v -9 38 1.5
v -9 38 -0.5
v -8 1 2.5
v -8 1 1.5
v -8 1 -0.5
v -8 1 -1.5
v -8 16 3.5
v -8 16 2.5
v -8 16 1.5
v -8 17 2.5
v -8 17 1.5
v -8 20 2.5
v -8 20 1.5
v -8 20 -1.5
v -8 20 -3.5
v -8 21 3.5
v -8 21 2.5
v -8 21 1.5
v -8 21 -0.5
v -8 21 -1.5
v -8 21 -2.5
v -8 22 -0.5
v -8 22 -1.5
v -8 22 -2.5
v -8 23 -1.5
v -8 23 -3.5
v -8 37 2.5
v -8 37 1.5
v -8 37 -0.5
v -8 37 -1.5
v -6 19 -0.5
v -6 19 -1.5
v -6 21 -0.5
v -6 21 -1.5
v -2 4 0.5
v -2 4 -0.5
v -2 34 0.5
v -2 34 -0.5
v 2 3 0.5
v 2 3 -0.5
v 2 35 0.5
v 2 35 -0.5
v 6 2 2.5
v 6 2 1.5
v 6 2 -0.5
v 6 2 -1.5
v 6 36 2.5
v 6 36 1.5
v 6 36 -0.5
v 6 36 -1.5
v -7 2 2.5
v -7 2 1.5
v -7 2 -0.5
v -7 2 -1.5
v -7 16 3.5
v -7 16 2.5
v -7 16 1.5
v -7 17 2.5
v -7 17 1.5
v -7 20 2.5
v -7 20 1.5
v -7 20 -1.5
v -7 20 -3.5
v -7 21 3.5
v -7 21 2.5
v -7 21 1.5
v -7 21 -0.5
v -7 21 -1.5
v -7 21 -2.5
v -7 22 -0.5
v -7 22 -1.5
v -7 22 -2.5
v -7 23 -1.5
v -7 23 -3.5
v -7 36 2.5
v -7 36 1.5
v -7 36 -0.5
v -7 36 -1.5
v -5 19 -0.5
v -5 19 -1.5
v -5 21 -0.5
v -5 21 -1.5
v -3 3 0.5
v -3 3 -0.5
v -3 21 -0.5
v -3 21 -1.5
v -3 22 -0.5
v -3 22 -1.5
v -3 35 0.5
v -3 35 -0.5
v 1 4 0.5
v 1 4 -0.5
v 1 34 0.5
v 1 34 -0.5
v 7 1 2.5
v 7 1 1.5
v 7 1 -0.5
v 7 1 -1.5
v 7 37 2.5
v 7 37 1.5
v 7 37 -0.5
v 7 37 -1.5
v 8 0 1.5
v 8 0 -0.5
v 8 1 0.5
v 8 1 -0.5
v 8 4 0.5
v 8 4 -0.5
v 8 20 0.5
v 8 20 -0.5
v 8 23 0.5
v 8 23 -0.5
v 8 34 0.5
v 8 34 -0.5
v 8 37 0.5
v 8 37 -0.5
v 8 38 1.5
v 8 38 -0.5
v 9 1 0.5
v 9 1 -0.5
v 9 4 0.5
v 9 4 -0.5
v 9 20 0.5
v 9 20 -0.5
v 9 23 0.5
v 9 23 -0.5
v 9 34 0.5
v 9 34 -0.5
v 9 37 0.5
v 9 37 -0.5
v -8 16 3.5
v -8 21 3.5
v -7 16 3.5
v -7 21 3.5
v -8 1 2.5
v -8 16 2.5
v -8 21 2.5
v -8 37 2.5
v -7 2 2.5
v -7 16 2.5
v -7 21 2.5
v -7 36 2.5
v 6 2 2.5
v 6 36 2.5
v 7 1 2.5
v 7 37 2.5
v -9 0 1.5
v -9 38 1.5
v -8 1 1.5
v -8 16 1.5
v -8 17 1.5
v -8 20 1.5
v -8 21 1.5
v -8 37 1.5
v -7 2 1.5
v -7 16 1.5
v -7 17 1.5
v -7 20 1.5
v -7 21 1.5
v -7 36 1.5
v -6 3 1.5
v -6 35 1.5
v -4 3 1.5
v -4 35 1.5
v 3 3 1.5
v 3 35 1.5
v 5 3 1.5
v 5 35 1.5
v 6 2 1.5
v 6 36 1.5
v 7 1 1.5
v 7 37 1.5
v 8 0 1.5
v 8 38 1.5
v 8 1 0.5
v 8 4 0.5
v 8 20 0.5
v 8 23 0.5
v 8 34 0.5
v 8 37 0.5
v 9 1 0.5
v 9 4 0.5
v 9 20 0.5
v 9 23 0.5
v 9 34 0.5
v 9 37 0.5
v -8 21 -2.5
v -8 22 -2.5
v -7 21 -2.5
v -7 22 -2.5
v -8 17 2.5
v -8 20 2.5
v -7 17 2.5
v -7 20 2.5
v -3 3 0.5
v -3 35 0.5
v -2 4 0.5
v -2 34 0.5
v 1 4 0.5
v 1 34 0.5
v 2 3 0.5
v 2 35 0.5
v -9 0 -0.5
v -9 21 -0.5
v -9 22 -0.5
v -9 38 -0.5
v -8 1 -0.5
v -8 21 -0.5
v -8 22 -0.5
v -8 37 -0.5
v -7 2 -0.5
v -7 21 -0.5
v -7 22 -0.5
v -7 36 -0.5
v -6 3 -0.5
v -6 19 -0.5
v -6 21 -0.5
v -6 22 -0.5
v -6 35 -0.5
v -5 19 -0.5
v -5 21 -0.5
v -4 3 -0.5
v -4 21 -0.5
v -4 22 -0.5
v -4 35 -0.5
v -3 3 -0.5
v -3 21 -0.5
v -3 22 -0.5
v -3 35 -0.5
v -2 4 -0.5
v -2 34 -0.5
v 1 4 -0.5
v 1 34 -0.5
v 2 3 -0.5
v 2 35 -0.5
v 3 3 -0.5
v 3 35 -0.5
v 5 3 -0.5
v 5 35 -0.5
v 6 2 -0.5
v 6 36 -0.5
v 7 1 -0.5
v 7 37 -0.5
v 8 0 -0.5
v 8 1 -0.5
v 8 4 -0.5
v 8 20 -0.5
v 8 23 -0.5
v 8 34 -0.5
v 8 37 -0.5
v 8 38 -0.5
v 9 1 -0.5
v 9 4 -0.5
v 9 20 -0.5
v 9 23 -0.5
v 9 34 -0.5
v 9 37 -0.5
v -9 21 -1.5
v -9 22 -1.5
v -8 1 -1.5
v -8 20 -1.5
v -8 21 -1.5
v -8 22 -1.5
v -8 23 -1.5
v -8 37 -1.5
v -7 2 -1.5
v -7 20 -1.5
v -7 21 -1.5
v -7 22 -1.5
v -7 23 -1.5
v -7 36 -1.5
v -6 19 -1.5
v -6 21 -1.5
v -5 19 -1.5
v -5 21 -1.5
v -3 21 -1.5
v -3 22 -1.5
v 6 2 -1.5
v 6 36 -1.5
v 7 1 -1.5
v 7 37 -1.5
v -8 20 -3.5
v -8 23 -3.5
v -7 20 -3.5
v -7 23 -3.5
v -9 0 1.5
v 8 0 1.5
v -9 0 -0.5
v 8 0 -0.5
v -8 1 2.5
v 7 1 2.5
v -8 1 1.5
v 7 1 1.5
v 8 1 0.5
v 9 1 0.5
v -8 1 -0.5
v 7 1 -0.5
v 8 1 -0.5
v 9 1 -0.5
v -8 1 -1.5
v 7 1 -1.5
v -2 4 0.5
v 1 4 0.5
v -2 4 -0.5
v 1 4 -0.5
v -8 16 3.5
v -7 16 3.5
v -8 16 2.5
v -7 16 2.5
v -6 19 -0.5
v -5 19 -0.5
v -6 19 -1.5
v -5 19 -1.5
v -8 20 2.5
v -7 20 2.5
v -8 20 1.5
v -7 20 1.5
v 8 20 0.5
v 9 20 0.5
v 8 20 -0.5
v 9 20 -0.5
v -8 20 -1.5
v -7 20 -1.5
v -8 20 -3.5
v -7 20 -3.5
v -9 21 -0.5
v -8 21 -0.5
v -7 21 -0.5
v -6 21 -0.5
v -5 21 -0.5
v -4 21 -0.5
v -3 21 -0.5
v -9 21 -1.5
v -8 21 -1.5
v -7 21 -1.5
v -6 21 -1.5
v -5 21 -1.5
v -3 21 -1.5
v -8 22 -1.5
v -7 22 -1.5
v -8 22 -2.5
v -7 22 -2.5
v 8 34 0.5
v 9 34 0.5
v 8 34 -0.5
v 9 34 -0.5
v -3 35 0.5
v 2 35 0.5
v -3 35 -0.5
v 2 35 -0.5
v -7 36 2.5
v 6 36 2.5
v -7 36 1.5
v 6 36 1.5
v -7 36 -0.5
v 6 36 -0.5
v -7 36 -1.5
v 6 36 -1.5
v -7 2 2.5
v 6 2 2.5
v -7 2 1.5
v 6 2 1.5
v -7 2 -0.5
v 6 2 -0.5
v -7 2 -1.5
v 6 2 -1.5
v -3 3 0.5
v 2 3 0.5
v -3 3 -0.5
v 2 3 -0.5
v 8 4 0.5
v 9 4 0.5
v 8 4 -0.5
v 9 4 -0.5
v -8 17 2.5
v -7 17 2.5
v -8 17 1.5
v -7 17 1.5
v -8 21 3.5
v -7 21 3.5
v -8 21 2.5
v -7 21 2.5
v -8 21 -1.5
v -7 21 -1.5
v -8 21 -2.5
v -7 21 -2.5
v -9 22 -0.5
v -8 22 -0.5
v -7 22 -0.5
v -6 22 -0.5
v -4 22 -0.5
v -3 22 -0.5
v -9 22 -1.5
v -8 22 -1.5
v -7 22 -1.5
v -3 22 -1.5
v 8 23 0.5
v 9 23 0.5
v 8 23 -0.5
v 9 23 -0.5
v -8 23 -1.5
v -7 23 -1.5
v -8 23 -3.5
v -7 23 -3.5
v -2 34 0.5
v 1 34 0.5
v -2 34 -0.5
v 1 34 -0.5
v -8 37 2.5
v 7 37 2.5
v -8 37 1.5
v 7 37 1.5
v 8 37 0.5
v 9 37 0.5
v -8 37 -0.5
v 7 37 -0.5
v 8 37 -0.5
v 9 37 -0.5
v -8 37 -1.5
v 7 37 -1.5
v -9 38 1.5
v 8 38 1.5
v -9 38 -0.5
v 8 38 -0.5

# faces
f 3/1/1 2/1/1 1/1/1
f 5/1/1 3/1/1 1/1/1
f 5/4/1 4/4/1 3/4/1
f 6/4/1 4/4/1 5/4/1
f 7/1/1 5/1/1 1/1/1
f 8/1/1 5/1/1 7/1/1
f 14/2/1 10/2/1 9/2/1
f 15/2/1 10/2/1 14/2/1
f 16/3/1 14/3/1 13/3/1
f 16/3/1 15/3/1 14/3/1
f 17/3/1 15/3/1 16/3/1
f 18/3/1 16/3/1 13/3/1
f 20/2/1 12/2/1 11/2/1
f 22/3/1 19/3/1 18/3/1
f 22/3/1 18/3/1 13/3/1
f 23/3/1 19/3/1 22/3/1
f 24/3/1 19/3/1 23/3/1
f 25/2/1 20/2/1 11/2/1
f 26/3/1 21/3/1 20/3/1
f 26/2/1 20/2/1 25/2/1
f 27/3/1 21/3/1 26/3/1
f 30/3/1 21/3/1 27/3/1
f 31/2/1 29/2/1 28/2/1
f 31/3/1 30/3/1 29/3/1
f 32/3/1 21/3/1 30/3/1
f 32/3/1 30/3/1 31/3/1
f 33/2/1 24/2/1 23/2/1
f 34/2/1 24/2/1 33/2/1
f 35/2/1 31/2/1 28/2/1
f 36/2/1 31/2/1 35/2/1
f 39/4/1 38/4/1 37/4/1
f 40/4/1 38/4/1 39/4/1
f 43/2/1 42/2/1 41/2/1
f 44/2/1 42/2/1 43/2/1
f 47/1/1 46/1/1 45/1/1
f 48/1/1 46/1/1 47/1/1
f 53/2/1 50/2/1 49/2/1
f 54/2/1 50/2/1 53/2/1
f 55/2/1 52/2/1 51/2/1
f 56/2/1 52/2/1 55/2/1
f 57/2/2 58/2/2 62/2/2
f 62/2/2 58/2/2 63/2/2
f 61/3/2 62/3/2 64/3/2
f 62/3/2 63/3/2 64/3/2
f 64/3/2 63/3/2 65/3/2
f 61/3/2 64/3/2 66/3/2
f 59/2/2 60/2/2 68/2/2
f 66/3/2 67/3/2 70/3/2
f 61/3/2 66/3/2 70/3/2
f 70/3/2 67/3/2 71/3/2
f 71/3/2 67/3/2 72/3/2
f 59/2/2 68/2/2 73/2/2
f 68/3/2 69/3/2 74/3/2
f 73/2/2 68/2/2 74/2/2
f 74/3/2 69/3/2 75/3/2
f 75/3/2 69/3/2 78/3/2
f 76/2/2 77/2/2 79/2/2
f 77/3/2 78/3/2 79/3/2
f 78/3/2 69/3/2 80/3/2
f 79/3/2 78/3/2 80/3/2
f 71/2/2 72/2/2 81/2/2
f 81/2/2 72/2/2 82/2/2
f 76/2/2 79/2/2 83/2/2
f 83/2/2 79/2/2 84/2/2
f 85/4/2 86/4/2 87/4/2
f 87/4/2 86/4/2 88/4/2
f 89/1/2 90/1/2 91/1/2
f 89/1/2 91/1/2 93/1/2
f 91/4/2 92/4/2 93/4/2
f 93/4/2 92/4/2 94/4/2
f 89/1/2 93/1/2 95/1/2
f 95/1/2 93/1/2 96/1/2
f 97/2/2 98/2/2 99/2/2
f 99/2/2 98/2/2 100/2/2
f 101/2/2 102/2/2 105/2/2
f 105/2/2 102/2/2 106/2/2
f 103/2/2 104/2/2 107/2/2
f 107/2/2 104/2/2 108/2/2
f 109/1/2 110/1/2 111/1/2
f 111/1/2 110/1/2 112/1/2
f 109/1/2 111/1/2 113/1/2
f 109/1/2 113/1/2 115/1/2
f 113/1/2 114/1/2 115/1/2
f 115/1/2 114/1/2 116/1/2
f 109/1/2 115/1/2 117/1/2
f 109/1/2 117/1/2 119/1/2
f 117/1/2 118/1/2 119/1/2
f 119/1/2 118/1/2 120/1/2
f 109/1/2 119/1/2 121/1/2
f 109/1/2 121/1/2 123/1/2
f 121/1/2 122/1/2 123/1/2
f 123/1/2 122/1/2 124/1/2
f 125/3/2 126/3/2 127/3/2
f 127/3/2 126/3/2 128/3/2
f 129/3/2 130/3/2 131/3/2
f 131/3/2 130/3/2 132/3/2
f 133/3/2 134/3/2 135/3/2
f 135/3/2 134/3/2 136/3/2
f 139/3/3 138/3/3 137/3/3
f 140/3/3 138/3/3 139/3/3
f 145/2/3 142/2/3 141/2/3
f 146/2/3 142/2/3 145/2/3
f 147/2/3 144/2/3 143/2/3
f 148/2/3 144/2/3 147/2/3
f 149/2/3 145/2/3 141/2/3
f 150/2/3 144/2/3 148/2/3
f 151/2/3 149/2/3 141/2/3
f 151/2/3 150/2/3 149/2/3
f 152/2/3 144/2/3 150/2/3
f 152/2/3 150/2/3 151/2/3
f 155/1/3 154/1/3 153/1/3
f 156/1/3 154/1/3 155/1/3
f 157/1/3 154/1/3 156/1/3
f 158/1/3 154/1/3 157/1/3
f 159/1/3 154/1/3 158/1/3
f 160/1/3 154/1/3 159/1/3
f 163/1/3 158/1/3 157/1/3
f 164/1/3 158/1/3 163/1/3
f 167/1/3 162/1/3 161/1/3
f 167/1/3 166/1/3 165/1/3
f 167/1/3 165/1/3 164/1/3
f 167/1/3 164/1/3 163/1/3
f 167/1/3 163/1/3 162/1/3
f 168/1/3 166/1/3 167/1/3
f 169/1/3 167/1/3 161/1/3
f 169/4/3 168/4/3 167/4/3
f 170/1/3 166/1/3 168/1/3
f 170/4/3 168/4/3 169/4/3
f 171/1/3 169/1/3 161/1/3
f 171/1/3 170/1/3 169/1/3
f 172/1/3 166/1/3 170/1/3
f 172/1/3 170/1/3 171/1/3
f 173/1/3 171/1/3 161/1/3
f 173/4/3 172/4/3 171/4/3
f 174/1/3 166/1/3 172/1/3
f 174/4/3 172/4/3 173/4/3
f 175/1/3 173/1/3 161/1/3
f 175/1/3 174/1/3 173/1/3
f 176/1/3 166/1/3 174/1/3
f 176/1/3 174/1/3 175/1/3
f 177/1/3 155/1/3 153/1/3
f 178/1/3 154/1/3 160/1/3
f 179/1/3 177/1/3 153/1/3
f 179/1/3 178/1/3 177/1/3
f 180/1/3 154/1/3 178/1/3
f 180/1/3 178/1/3 179/1/3
f 187/3/3 182/3/3 181/3/3
f 188/3/3 182/3/3 187/3/3
f 189/3/3 184/3/3 183/3/3
f 190/3/3 184/3/3 189/3/3
f 191/3/3 186/3/3 185/3/3
f 192/3/3 186/3/3 191/3/3
f 195/3/3 194/3/3 193/3/3
f 196/3/3 194/3/3 195/3/3
f 197/3/4 198/3/4 199/3/4
f 199/3/4 198/3/4 200/3/4
f 201/1/4 202/1/4 203/1/4
f 203/1/4 202/1/4 204/1/4
f 201/1/4 203/1/4 205/1/4
f 204/1/4 202/1/4 206/1/4
f 201/1/4 205/1/4 207/1/4
f 205/1/4 206/1/4 207/1/4
f 206/1/4 202/1/4 208/1/4
f 207/1/4 206/1/4 208/1/4
f 209/1/4 210/1/4 213/1/4
f 213/1/4 210/1/4 214/1/4
f 211/1/4 212/1/4 215/1/4
f 215/1/4 212/1/4 216/1/4
f 217/1/4 218/1/4 221/1/4
f 221/1/4 218/1/4 222/1/4
f 222/1/4 218/1/4 223/1/4
f 219/1/4 220/1/4 224/1/4
f 224/1/4 220/1/4 225/1/4
f 221/4/4 222/4/4 226/4/4
f 217/1/4 221/1/4 228/1/4
f 226/4/4 227/4/4 228/4/4
f 221/4/4 226/4/4 228/4/4
f 228/4/4 227/4/4 229/4/4
f 224/4/4 225/4/4 230/4/4
f 225/1/4 220/1/4 231/1/4
f 230/4/4 225/4/4 231/4/4
f 228/1/4 229/1/4 232/1/4
f 217/1/4 228/1/4 232/1/4
f 232/1/4 229/1/4 233/1/4
f 230/1/4 231/1/4 234/1/4
f 231/1/4 220/1/4 235/1/4
f 234/1/4 231/1/4 235/1/4
f 236/2/4 237/2/4 238/2/4
f 238/2/4 237/2/4 239/2/4
f 217/1/4 232/1/4 240/1/4
f 235/1/4 220/1/4 241/1/4
f 217/1/4 240/1/4 242/1/4
f 240/1/4 241/1/4 242/1/4
f 241/1/4 220/1/4 243/1/4
f 242/1/4 241/1/4 243/1/4
f 217/1/4 242/1/4 244/1/4
f 242/4/4 243/4/4 244/4/4
f 243/1/4 220/1/4 245/1/4
f 244/4/4 243/4/4 245/4/4
f 217/1/4 244/1/4 246/1/4
f 244/1/4 245/1/4 246/1/4
f 245/1/4 220/1/4 247/1/4
f 246/1/4 245/1/4 247/1/4
f 209/1/4 213/1/4 248/1/4
f 216/1/4 212/1/4 249/1/4
f 209/1/4 248/1/4 250/1/4
f 248/1/4 249/1/4 250/1/4
f 250/1/4 249/1/4 251/1/4
f 251/1/4 249/1/4 252/1/4
f 252/1/4 249/1/4 253/1/4
f 253/1/4 249/1/4 254/1/4
f 254/1/4 249/1/4 255/1/4
f 249/1/4 212/1/4 256/1/4
f 255/1/4 249/1/4 256/1/4
f 256/1/4 212/1/4 257/1/4
f 251/3/4 252/3/4 258/3/4
f 258/3/4 252/3/4 259/3/4
f 253/3/4 254/3/4 260/3/4
f 260/3/4 254/3/4 261/3/4
f 255/3/4 256/3/4 262/3/4
f 262/3/4 256/3/4 263/3/4
f 264/4/4 265/4/4 268/4/4
f 268/4/4 265/4/4 269/4/4
f 266/2/4 267/2/4 272/2/4
f 272/2/4 267/2/4 273/2/4
f 268/4/4 269/4/4 274/4/4
f 274/4/4 269/4/4 275/4/4
f 270/2/4 271/2/4 276/2/4
f 276/2/4 271/2/4 277/2/4
f 274/4/4 275/4/4 279/4/4
f 278/4/4 279/4/4 280/4/4
f 279/4/4 275/4/4 281/4/4
f 280/4/4 279/4/4 281/4/4
f 281/4/4 275/4/4 282/4/4
f 282/4/4 275/4/4 283/4/4
f 266/2/4 272/2/4 284/2/4
f 277/2/4 271/2/4 285/2/4
f 266/2/4 284/2/4 286/2/4
f 284/2/4 285/2/4 286/2/4
f 285/2/4 271/2/4 287/2/4
f 286/2/4 285/2/4 287/2/4
f 288/3/4 289/3/4 290/3/4
f 290/3/4 289/3/4 291/3/4
f 294/1/5 293/1/5 292/1/5
f 295/1/5 293/1/5 294/1/5
f 298/2/5 297/2/5 296/2/5
f 299/2/5 297/2/5 298/2/5
f 304/3/5 301/3/5 300/3/5
f 305/3/5 301/3/5 304/3/5
f 306/2/5 303/2/5 302/2/5
f 307/2/5 303/2/5 306/2/5
f 310/2/5 309/2/5 308/2/5
f 311/2/5 309/2/5 310/2/5
f 314/3/5 313/3/5 312/3/5
f 315/3/5 313/3/5 314/3/5
f 318/4/5 317/4/5 316/4/5
f 319/4/5 317/4/5 318/4/5
f 322/3/5 321/3/5 320/3/5
f 323/3/5 321/3/5 322/3/5
f 326/3/5 325/3/5 324/3/5
f 327/3/5 325/3/5 326/3/5
f 330/3/5 329/3/5 328/3/5
f 331/3/5 329/3/5 330/3/5
f 339/4/5 333/4/5 332/4/5
f 340/4/5 333/4/5 339/4/5
f 341/4/5 335/4/5 334/4/5
f 342/4/5 335/4/5 341/4/5
f 343/4/5 338/4/5 337/4/5
f 343/4/5 337/4/5 336/4/5
f 344/4/5 338/4/5 343/4/5
f 347/3/5 346/3/5 345/3/5
f 348/3/5 346/3/5 347/3/5
f 351/3/5 350/3/5 349/3/5
f 352/3/5 350/3/5 351/3/5
f 355/1/5 354/1/5 353/1/5
f 356/1/5 354/1/5 355/1/5
f 359/2/5 358/2/5 357/2/5
f 360/2/5 358/2/5 359/2/5
f 363/2/5 362/2/5 361/2/5
f 364/2/5 362/2/5 363/2/5
f 365/2/6 366/2/6 367/2/6
f 367/2/6 366/2/6 368/2/6
f 369/2/6 370/2/6 371/2/6
f 371/2/6 370/2/6 372/2/6
f 373/1/6 374/1/6 375/1/6
f 375/1/6 374/1/6 376/1/6
f 377/3/6 378/3/6 379/3/6
f 379/3/6 378/3/6 380/3/6
f 381/3/6 382/3/6 383/3/6
f 383/3/6 382/3/6 384/3/6
f 385/3/6 386/3/6 387/3/6
f 387/3/6 386/3/6 388/3/6
f 389/3/6 390/3/6 391/3/6
f 391/3/6 390/3/6 392/3/6
f 393/4/6 394/4/6 399/4/6
f 399/4/6 394/4/6 400/4/6
f 397/4/6 398/4/6 401/4/6
f 395/4/6 396/4/6 401/4/6
f 396/4/6 397/4/6 401/4/6
f 401/4/6 398/4/6 402/4/6
f 403/3/6 404/3/6 405/3/6
f 405/3/6 404/3/6 406/3/6
f 407/3/6 408/3/6 409/3/6
f 409/3/6 408/3/6 410/3/6
f 411/2/6 412/2/6 413/2/6
f 413/2/6 412/2/6 414/2/6
f 415/2/6 416/2/6 417/2/6
f 417/2/6 416/2/6 418/2/6
f 419/3/6 420/3/6 423/3/6
f 423/3/6 420/3/6 424/3/6
f 421/2/6 422/2/6 425/2/6
f 425/2/6 422/2/6 426/2/6
f 427/1/6 428/1/6 429/1/6
f 429/1/6 428/1/6 430/1/6
